<?xml version="1.0" encoding="UTF-8"?>
<svg version="1.1" xmlns="http://www.w3.org/2000/svg" width="784" height="1168">
<path d="M0 0 C258.72 0 517.44 0 784 0 C784 385.44 784 770.88 784 1168 C525.28 1168 266.56 1168 0 1168 C0 782.56 0 397.12 0 0 Z " fill="#171329" transform="translate(0,0)"/>
<path d="M0 0 C5.28 0 10.56 0 16 0 C16 1.65 16 3.3 16 5 C20.95 5 25.9 5 31 5 C31 6.32 31 7.64 31 9 C36.28 9 41.56 9 47 9 C47 10.98 47 12.96 47 15 C52.28 15 57.56 15 63 15 C63 16.32 63 17.64 63 19 C71.58 19 80.16 19 89 19 C89 20.98 89 22.96 89 25 C93.62 25 98.24 25 103 25 C103 27.31 103 29.62 103 32 C105.64 32 108.28 32 111 32 C111 39.26 111 46.52 111 54 C113.64 54 116.28 54 119 54 C119 56.97 119 59.94 119 63 C120.65 63 122.3 63 124 63 C124 65.31 124 67.62 124 70 C124.99 70 125.98 70 127 70 C127 72.64 127 75.28 127 78 C129.31 78 131.62 78 134 78 C134 80.64 134 83.28 134 86 C136.97 86 139.94 86 143 86 C143 88.64 143 91.28 143 94 C145.31 94 147.62 94 150 94 C150 96.64 150 99.28 150 102 C155.61 102 161.22 102 167 102 C167 104.64 167 107.28 167 110 C169.64 110 172.28 110 175 110 C175 112.64 175 115.28 175 118 C177.64 118 180.28 118 183 118 C183 120.64 183 123.28 183 126 C185.64 126 188.28 126 191 126 C191 128.64 191 131.28 191 134 C193.64 134 196.28 134 199 134 C199 136.64 199 139.28 199 142 C201.64 142 204.28 142 207 142 C207 144.64 207 147.28 207 150 C209.64 150 212.28 150 215 150 C215 152.64 215 155.28 215 158 C217.31 158 219.62 158 222 158 C222 160.64 222 163.28 222 166 C224.97 166 227.94 166 231 166 C231 168.64 231 171.28 231 174 C233.31 174 235.62 174 238 174 C238 176.31 238 178.62 238 181 C240.64 181 243.28 181 246 181 C246 183.64 246 186.28 246 189 C248.64 189 251.28 189 254 189 C254 191.64 254 194.28 254 197 C256.64 197 259.28 197 262 197 C262 199.64 262 202.28 262 205 C264.64 205 267.28 205 270 205 C270 207.97 270 210.94 270 214 C271.60681641 213.98259766 271.60681641 213.98259766 273.24609375 213.96484375 C274.64322743 213.95546701 276.04036299 213.94636669 277.4375 213.9375 C278.14455078 213.92912109 278.85160156 213.92074219 279.58007812 213.91210938 C281.38693559 213.90346412 283.19387603 213.94779989 285 214 C286 215 286 215 286.0625 218.5625 C286.041875 219.696875 286.02125 220.83125 286 222 C288.31 222 290.62 222 293 222 C293 224.31 293 226.62 293 229 C294.98 229 296.96 229 299 229 C299 231.64 299 234.28 299 237 C302.63 237 306.26 237 310 237 C310 239.64 310 242.28 310 245 C312.31 245 314.62 245 317 245 C317 247.64 317 250.28 317 253 C319.64 253 322.28 253 325 253 C325 255.64 325 258.28 325 261 C319.39 261 313.78 261 308 261 C308 258.36 308 255.72 308 253 C289.85 253 271.7 253 253 253 C253 250.36 253 247.72 253 245 C245.41 245 237.82 245 230 245 C230 242.36 230 239.72 230 237 C225.05 237 220.1 237 215 237 C215 234.36 215 231.72 215 229 C212.36 229 209.72 229 207 229 C207 226.36 207 223.72 207 221 C201.72 221 196.44 221 191 221 C191 218.36 191 215.72 191 213 C188.36 213 185.72 213 183 213 C183 210.69 183 208.38 183 206 C175.08 206 167.16 206 159 206 C159 203.03 159 200.06 159 197 C156.03 197 153.06 197 150 197 C150 194.36 150 191.72 150 189 C139.44 189 128.88 189 118 189 C118 184.05 118 179.1 118 174 C113.05 174 108.1 174 103 174 C103 176.31 103 178.62 103 181 C105.64 181 108.28 181 111 181 C111 183.97 111 186.94 111 190 C113.31 190 115.62 190 118 190 C118 192.64 118 195.28 118 198 C120.64 198 123.28 198 126 198 C126 200.31 126 202.62 126 205 C134.25 205 142.5 205 151 205 C151 207.97 151 210.94 151 214 C153.64 214 156.28 214 159 214 C158.67 216.64 158.34 219.28 158 222 C163.61 222 169.22 222 175 222 C175 224.31 175 226.62 175 229 C177.64 229 180.28 229 183 229 C183 231.64 183 234.28 183 237 C185.64 237 188.28 237 191 237 C191 239.64 191 242.28 191 245 C196.28 245 201.56 245 207 245 C207 255.56 207 266.12 207 277 C209.64 277 212.28 277 215 277 C215 279.64 215 282.28 215 285 C207.08 285 199.16 285 191 285 C191 282.36 191 279.72 191 277 C185.72 277 180.44 277 175 277 C175 274.36 175 271.72 175 269 C169.72 269 164.44 269 159 269 C159 266.36 159 263.72 159 261 C151.08 261 143.16 261 135 261 C135 258.36 135 255.72 135 253 C132.36 253 129.72 253 127 253 C127 250.36 127 247.72 127 245 C124.36 245 121.72 245 119 245 C119 242.36 119 239.72 119 237 C116.36 237 113.72 237 111 237 C111 234.36 111 231.72 111 229 C108.03 229 105.06 229 102 229 C102 226.36 102 223.72 102 221 C97.05 221 92.1 221 87 221 C87 218.36 87 215.72 87 213 C84.36 213 81.72 213 79 213 C79 210.36 79 207.72 79 205 C76.36 205 73.72 205 71 205 C71 202.36 71 199.72 71 197 C68.36 197 65.72 197 63 197 C63 194.36 63 191.72 63 189 C60.36 189 57.72 189 55 189 C55 186.36 55 183.72 55 181 C52.36 181 49.72 181 47 181 C47 178.69 47 176.38 47 174 C49.64 174 52.28 174 55 174 C55 168.72 55 163.44 55 158 C52.36 158 49.72 158 47 158 C47 155.36 47 152.72 47 150 C44.36 150 41.72 150 39 150 C39 154.95 39 159.9 39 165 C34.05 165 29.1 165 24 165 C24 167.97 24 170.94 24 174 C19.05 174 14.1 174 9 174 C9 176.64 9 179.28 9 182 C6.03 182 3.06 182 0 182 C0 184.64 0 187.28 0 190 C-4.95 190 -9.9 190 -15 190 C-15 192.64 -15 195.28 -15 198 C-17.64 198 -20.28 198 -23 198 C-23 200.64 -23 203.28 -23 206 C-25.97 206 -28.94 206 -32 206 C-32 210.95 -32 215.9 -32 221 C-44.54 221 -57.08 221 -70 221 C-70 223.64 -70 226.28 -70 229 C-78.58 229 -87.16 229 -96 229 C-96 231.64 -96 234.28 -96 237 C-101.28 237 -106.56 237 -112 237 C-112 239.64 -112 242.28 -112 245 C-130.48 245 -148.96 245 -168 245 C-168 247.64 -168 250.28 -168 253 C-173.28 253 -178.56 253 -184 253 C-184 250.36 -184 247.72 -184 245 C-181.36 245 -178.72 245 -176 245 C-176 242.36 -176 239.72 -176 237 C-170.72 237 -165.44 237 -160 237 C-160 234.36 -160 231.72 -160 229 C-149.11 229 -138.22 229 -127 229 C-127 226.36 -127 223.72 -127 221 C-124.69 221 -122.38 221 -120 221 C-120 218.36 -120 215.72 -120 213 C-111.93649887 212.87132711 -104.02502344 213.20318916 -96 214 C-96 211.03 -96 208.06 -96 205 C-90.72 205 -85.44 205 -80 205 C-80 202.69 -80 200.38 -80 198 C-77.03 198 -74.06 198 -71 198 C-71 197.34 -71 196.68 -71 196 C-68.69 196 -66.38 196 -64 196 C-64 193.69 -64 191.38 -64 189 C-61.03 189 -58.06 189 -55 189 C-55 186.69 -55 184.38 -55 182 C-52.36 182 -49.72 182 -47 182 C-47 179.03 -47 176.06 -47 173 C-49.97 173 -52.94 173 -56 173 C-56 170.69 -56 168.38 -56 166 C-53.03 166 -50.06 166 -47 166 C-47 163.36 -47 160.72 -47 158 C-44.36 158 -41.72 158 -39 158 C-39 155.36 -39 152.72 -39 150 C-36.69 150 -34.38 150 -32 150 C-32 147.36 -32 144.72 -32 142 C-29.36 142 -26.72 142 -24 142 C-24.0309375 140.0509375 -24.0309375 140.0509375 -24.0625 138.0625 C-24.08399454 136.70834367 -24.07148199 135.35243917 -24 134 C-23 133 -23 133 -19.4375 132.9375 C-18.303125 132.958125 -17.16875 132.97875 -16 133 C-16 130.69 -16 128.38 -16 126 C-13.36 126 -10.72 126 -8 126 C-8 120.72 -8 115.44 -8 110 C-10.64 110 -13.28 110 -16 110 C-16 112.64 -16 115.28 -16 118 C-18.64 118 -21.28 118 -24 118 C-24 120.64 -24 123.28 -24 126 C-28.62 126 -33.24 126 -38 126 C-38 128.64 -38 131.28 -38 134 C-43.28 134 -48.56 134 -54 134 C-54 136.64 -54 139.28 -54 142 C-58.29 142 -62.58 142 -67 142 C-67 139.03 -67 136.06 -67 133 C-63.37 133 -59.74 133 -56 133 C-56 130.36 -56 127.72 -56 125 C-53.36 125 -50.72 125 -48 125 C-48 122.69 -48 120.38 -48 118 C-45.03 118 -42.06 118 -39 118 C-39 115.36 -39 112.72 -39 110 C-36.36 110 -33.72 110 -31 110 C-31 107.36 -31 104.72 -31 102 C-26.05 102 -21.1 102 -16 102 C-16 99.36 -16 96.72 -16 94 C-13.36 94 -10.72 94 -8 94 C-8 88.72 -8 83.44 -8 78 C-5.36 78 -2.72 78 0 78 C0 70.08 0 62.16 0 54 C-2.64 54 -5.28 54 -8 54 C-8 56.64 -8 59.28 -8 62 C-12.95 62 -17.9 62 -23 62 C-23 64.64 -23 67.28 -23 70 C-31.25 70 -39.5 70 -48 70 C-48 67.36 -48 64.72 -48 62 C-45.03 62 -42.06 62 -39 62 C-39 59.69 -39 57.38 -39 55 C-36.36 55 -33.72 55 -31 55 C-31 52.36 -31 49.72 -31 47 C-26.05 47 -21.1 47 -16 47 C-16 44.36 -16 41.72 -16 39 C-13.36 39 -10.72 39 -8 39 C-8 32.4 -8 25.8 -8 19 C-5.36 19 -2.72 19 0 19 C0 12.73 0 6.46 0 0 Z " fill="#4F4D7E" transform="translate(393,523)"/>
<path d="M0 0 C5.28 0 10.56 0 16 0 C16 1.65 16 3.3 16 5 C20.95 5 25.9 5 31 5 C31 6.32 31 7.64 31 9 C36.28 9 41.56 9 47 9 C47 10.98 47 12.96 47 15 C52.28 15 57.56 15 63 15 C63 16.32 63 17.64 63 19 C71.58 19 80.16 19 89 19 C89 20.98 89 22.96 89 25 C93.62 25 98.24 25 103 25 C103 27.31 103 29.62 103 32 C105.64 32 108.28 32 111 32 C111 39.26 111 46.52 111 54 C113.64 54 116.28 54 119 54 C119 56.97 119 59.94 119 63 C120.65 63 122.3 63 124 63 C124 65.31 124 67.62 124 70 C124.99 70 125.98 70 127 70 C127 72.64 127 75.28 127 78 C129.31 78 131.62 78 134 78 C134 80.64 134 83.28 134 86 C136.97 86 139.94 86 143 86 C143 88.64 143 91.28 143 94 C145.31 94 147.62 94 150 94 C150 96.64 150 99.28 150 102 C155.61 102 161.22 102 167 102 C167 104.64 167 107.28 167 110 C169.64 110 172.28 110 175 110 C175 112.64 175 115.28 175 118 C177.64 118 180.28 118 183 118 C183 120.64 183 123.28 183 126 C185.64 126 188.28 126 191 126 C191 128.64 191 131.28 191 134 C193.64 134 196.28 134 199 134 C199 136.64 199 139.28 199 142 C201.64 142 204.28 142 207 142 C207 144.64 207 147.28 207 150 C209.64 150 212.28 150 215 150 C215 152.64 215 155.28 215 158 C217.31 158 219.62 158 222 158 C222 160.64 222 163.28 222 166 C224.64 166 227.28 166 230 166 C230 168.64 230 171.28 230 174 C225.05 174 220.1 174 215 174 C215 171.36 215 168.72 215 166 C209.72 166 204.44 166 199 166 C199 163.36 199 160.72 199 158 C193.72 158 188.44 158 183 158 C183 155.36 183 152.72 183 150 C181.35 150 179.7 150 178 150 C178 147.36 178 144.72 178 142 C174.37 142 170.74 142 167 142 C167 139.03 167 136.06 167 133 C164.36 133 161.72 133 159 133 C159 130.69 159 128.38 159 126 C156.03 126 153.06 126 150 126 C150 123.36 150 120.72 150 118 C145.05 118 140.1 118 135 118 C135 120.64 135 123.28 135 126 C132.36 126 129.72 126 127 126 C127 123.36 127 120.72 127 118 C124.36 118 121.72 118 119 118 C119 115.36 119 112.72 119 110 C116.03 110 113.06 110 110 110 C110 107.36 110 104.72 110 102 C107.69 102 105.38 102 103 102 C103 112.56 103 123.12 103 134 C105.64 134 108.28 134 111 134 C111 141.92 111 149.84 111 158 C108.03 158 105.06 158 102 158 C102 155.36 102 152.72 102 150 C99.69 150 97.38 150 95 150 C95 147.36 95 144.72 95 142 C92.03 142 89.06 142 86 142 C86 136.72 86 131.44 86 126 C83.69 126 81.38 126 79 126 C79 123.03 79 120.06 79 117 C76.03 117 73.06 117 70 117 C70 106.77 70 96.54 70 86 C67.69 86 65.38 86 63 86 C63 88.64 63 91.28 63 94 C60.36 94 57.72 94 55 94 C55 86.08 55 78.16 55 70 C52.36 70 49.72 70 47 70 C47 67.36 47 64.72 47 62 C44.69 62 42.38 62 40 62 C40 67.28 40 72.56 40 78 C34.72 78 29.44 78 24 78 C24 80.64 24 83.28 24 86 C21.36 86 18.72 86 16 86 C16 88.64 16 91.28 16 94 C13.36 94 10.72 94 8 94 C8 96.64 8 99.28 8 102 C5.36 102 2.72 102 0 102 C0 104.64 0 107.28 0 110 C-5.28 110 -10.56 110 -16 110 C-16 112.64 -16 115.28 -16 118 C-18.64 118 -21.28 118 -24 118 C-24 120.64 -24 123.28 -24 126 C-28.62 126 -33.24 126 -38 126 C-38 128.64 -38 131.28 -38 134 C-43.28 134 -48.56 134 -54 134 C-54 136.64 -54 139.28 -54 142 C-58.29 142 -62.58 142 -67 142 C-67 139.03 -67 136.06 -67 133 C-63.37 133 -59.74 133 -56 133 C-56 130.36 -56 127.72 -56 125 C-53.36 125 -50.72 125 -48 125 C-48 122.69 -48 120.38 -48 118 C-45.03 118 -42.06 118 -39 118 C-39 115.36 -39 112.72 -39 110 C-36.36 110 -33.72 110 -31 110 C-31 107.36 -31 104.72 -31 102 C-26.05 102 -21.1 102 -16 102 C-16 99.36 -16 96.72 -16 94 C-13.36 94 -10.72 94 -8 94 C-8 88.72 -8 83.44 -8 78 C-5.36 78 -2.72 78 0 78 C0 70.08 0 62.16 0 54 C-2.64 54 -5.28 54 -8 54 C-8 56.64 -8 59.28 -8 62 C-12.95 62 -17.9 62 -23 62 C-23 64.64 -23 67.28 -23 70 C-31.25 70 -39.5 70 -48 70 C-48 67.36 -48 64.72 -48 62 C-45.03 62 -42.06 62 -39 62 C-39 59.69 -39 57.38 -39 55 C-36.36 55 -33.72 55 -31 55 C-31 52.36 -31 49.72 -31 47 C-26.05 47 -21.1 47 -16 47 C-16 44.36 -16 41.72 -16 39 C-13.36 39 -10.72 39 -8 39 C-8 32.4 -8 25.8 -8 19 C-5.36 19 -2.72 19 0 19 C0 12.73 0 6.46 0 0 Z " fill="#FBFBFB" transform="translate(393,523)"/>
<path d="M0 0 C5.28 0 10.56 0 16 0 C16 2.31 16 4.62 16 7 C21.28 7 26.56 7 32 7 C32 9.97 32 12.94 32 16 C36.95 16 41.9 16 47 16 C47 18.31 47 20.62 47 23 C51.95 23 56.9 23 62 23 C62 25.64 62 28.28 62 31 C70.25 31 78.5 31 87 31 C87 33.64 87 36.28 87 39 C91.95 39 96.9 39 102 39 C102 41.31 102 43.62 102 46 C104.31 46 106.62 46 109 46 C109 48.64 109 51.28 109 54 C103.72 54 98.44 54 93 54 C93 59.28 93 64.56 93 70 C94.65 70 96.3 70 98 70 C98 72.64 98 75.28 98 78 C94.37 78 90.74 78 87 78 C87 102.75 87 127.5 87 153 C84.69 153 82.38 153 80 153 C80 151.68 80 150.36 80 149 C78.35 149 76.7 149 75 149 C75 123.26 75 97.52 75 71 C70.71 70.67 66.42 70.34 62 70 C62 94.09 62 118.18 62 143 C59.69 143 57.38 143 55 143 C55 141.35 55 139.7 55 138 C52.03 138 49.06 138 46 138 C46 113.25 46 88.5 46 63 C41.38 63 36.76 63 32 63 C32 86.76 32 110.52 32 135 C26.72 135 21.44 135 16 135 C16 110.91 16 86.82 16 62 C18.31 62 20.62 62 23 62 C23 59.36 23 56.72 23 54 C17.72 54 12.44 54 7 54 C7 51.36 7 48.72 7 46 C12.28 46 17.56 46 23 46 C23 41.05 23 36.1 23 31 C25.97 31 28.94 31 32 31 C32 28.36 32 25.72 32 23 C26.72 23 21.44 23 16 23 C16 20.36 16 17.72 16 15 C13.03 15 10.06 15 7 15 C7 12.36 7 9.72 7 7 C4.69 7 2.38 7 0 7 C0 4.69 0 2.38 0 0 Z " fill="#A6F83B" transform="translate(386,386)"/>
<path d="M0 0 C5.28 0 10.56 0 16 0 C16 2.64 16 5.28 16 8 C18.31 8 20.62 8 23 8 C23 10.64 23 13.28 23 16 C25.64 16 28.28 16 31 16 C31 18.97 31 21.94 31 25 C33.64 25 36.28 25 39 25 C39 30.28 39 35.56 39 41 C41.64 41 44.28 41 47 41 C47 43.31 47 45.62 47 48 C49.64 48 52.28 48 55 48 C55 53.28 55 58.56 55 64 C57.64 64 60.28 64 63 64 C63 66.64 63 69.28 63 72 C65.64 72 68.28 72 71 72 C71 77.28 71 82.56 71 88 C65.72 88 60.44 88 55 88 C55 85.36 55 82.72 55 80 C49.39 80 43.78 80 38 80 C38 77.36 38 74.72 38 72 C30.74 72 23.48 72 16 72 C16 69.36 16 66.72 16 64 C13.36 64 10.72 64 8 64 C8 61.36 8 58.72 8 56 C2.72 56 -2.56 56 -8 56 C-8 53.36 -8 50.72 -8 48 C-20.87 48 -33.74 48 -47 48 C-47 45.36 -47 42.72 -47 40 C-44.69 40 -42.38 40 -40 40 C-40 37.69 -40 35.38 -40 33 C-37.03 33 -34.06 33 -31 33 C-31 32.01 -31 31.02 -31 30 C-28.69 30 -26.38 30 -24 30 C-24 25.38 -24 20.76 -24 16 C-21.36 16 -18.72 16 -16 16 C-16 13.36 -16 10.72 -16 8 C-10.72 8 -5.44 8 0 8 C0 5.36 0 2.72 0 0 Z " fill="#504E7E" transform="translate(417,704)"/>
<path d="M0 0 C0.66 0 1.32 0 2 0 C2 4.95 2 9.9 2 15 C-3.28 15 -8.56 15 -14 15 C-14 17.64 -14 20.28 -14 23 C-8.72 23 -3.44 23 2 23 C2 25.64 2 28.28 2 31 C-0.31 31 -2.62 31 -5 31 C-5 55.09 -5 79.18 -5 104 C0.28 104 5.56 104 11 104 C11 80.24 11 56.48 11 32 C15.62 32 20.24 32 25 32 C25 56.75 25 81.5 25 107 C27.97 107 30.94 107 34 107 C34 108.65 34 110.3 34 112 C36.31 112 38.62 112 41 112 C41 87.91 41 63.82 41 39 C51 39 51 39 54 40 C54 65.74 54 91.48 54 118 C55.65 118 57.3 118 59 118 C59 119.32 59 120.64 59 122 C61.31 122 63.62 122 66 122 C66 97.25 66 72.5 66 47 C69.63 47 73.26 47 77 47 C77 44.36 77 41.72 77 39 C77.66 39 78.32 39 79 39 C79 42.3 79 45.6 79 49 C75.37 49 71.74 49 68 49 C68.00444122 49.87839035 68.00888245 50.7567807 68.01345825 51.66178894 C68.05355545 59.94540877 68.08399485 68.22899593 68.10362434 76.51269054 C68.11405535 80.77127922 68.12820209 85.02978761 68.15087891 89.28833008 C68.17263163 93.39912517 68.18457377 97.50984309 68.18975449 101.6206913 C68.19344588 103.18795295 68.20065425 104.75521045 68.21146011 106.32243919 C68.22600742 108.51998348 68.2279766 110.71721012 68.22705078 112.91479492 C68.231492 114.16499924 68.23593323 115.41520355 68.24050903 116.70329285 C68 120 68 120 66 125 C60.39 125 54.78 125 49 125 C49 123.68 49 122.36 49 121 C43.72 121 38.44 121 33 121 C33 119.02 33 117.04 33 115 C27.72 115 22.44 115 17 115 C17 113.68 17 112.36 17 111 C12.05 111 7.1 111 2 111 C2 109.35 2 107.7 2 106 C-3.28 106 -8.56 106 -14 106 C-14.33 111.94 -14.66 117.88 -15 124 C-15.33 124 -15.66 124 -16 124 C-16.33 118.72 -16.66 113.44 -17 108 C-23.00267451 106.49933137 -28.97483271 106.44511812 -35 108 C-35.33 107.34 -35.66 106.68 -36 106 C-34.35 106 -32.7 106 -31 106 C-30.67 105.01 -30.34 104.02 -30 103 C-27.03 103 -24.06 103 -21 103 C-21 79.24 -21 55.48 -21 31 C-27.6 31 -34.2 31 -41 31 C-41 30.34 -41 29.68 -41 29 C-33.74 29 -26.48 29 -19 29 C-18.67 27.35 -18.34 25.7 -18 24 C-17.67 23.67 -17.34 23.34 -17 23 C-16.79395915 21.67218122 -16.6337041 20.33704105 -16.5 19 C-16.11111111 15.11111111 -16.11111111 15.11111111 -15 14 C-12.46950598 13.92686433 -9.96695163 13.90752473 -7.4375 13.9375 C-6.72658203 13.94201172 -6.01566406 13.94652344 -5.28320312 13.95117188 C-3.52209987 13.96299136 -1.76103964 13.98092737 0 14 C0 9.38 0 4.76 0 0 Z " fill="#14161F" transform="translate(407,417)"/>
<path d="M0 0 C2.64 0 5.28 0 8 0 C8 7.92 8 15.84 8 24 C5.69 24 3.38 24 1 24 C1 30.6 1 37.2 1 44 C0.01 44 -0.98 44 -2 44 C-2 44.66 -2 45.32 -2 46 C-3.98 46.33 -5.96 46.66 -8 47 C-8 49.97 -8 52.94 -8 56 C-13.28 56 -18.56 56 -24 56 C-24 63.92 -24 71.84 -24 80 C-26.97 80 -29.94 80 -33 80 C-33 82.31 -33 84.62 -33 87 C-37.95 87 -42.9 87 -48 87 C-48 89.64 -48 92.28 -48 95 C-50.64 95 -53.28 95 -56 95 C-56 97.64 -56 100.28 -56 103 C-58.64 103 -61.28 103 -64 103 C-64 105.64 -64 108.28 -64 111 C-69.94 111 -75.88 111 -82 111 C-82 108.36 -82 105.72 -82 103 C-78.7 103 -75.4 103 -72 103 C-72 98.05 -72 93.1 -72 88 C-69.03 88 -66.06 88 -63 88 C-63 85.03 -63 82.06 -63 79 C-60.69 79 -58.38 79 -56 79 C-56 76.69 -56 74.38 -56 72 C-53.36 72 -50.72 72 -48 72 C-48 69.36 -48 66.72 -48 64 C-45.03 64 -42.06 64 -39 64 C-39 61.36 -39 58.72 -39 56 C-36.69 56 -34.38 56 -32 56 C-32 54.02 -32 52.04 -32 50 C-29.36 50 -26.72 50 -24 50 C-24 44.06 -24 38.12 -24 32 C-18.72 32 -13.44 32 -8 32 C-8 26.72 -8 21.44 -8 16 C-5.36 16 -2.72 16 0 16 C0 10.72 0 5.44 0 0 Z " fill="#524F80" transform="translate(305,617)"/>
<path d="M0 0 C5.28 0 10.56 0 16 0 C16 2.31 16 4.62 16 7 C21.28 7 26.56 7 32 7 C32 9.97 32 12.94 32 16 C36.95 16 41.9 16 47 16 C47 18.31 47 20.62 47 23 C51.95 23 56.9 23 62 23 C62 25.64 62 28.28 62 31 C70.25 31 78.5 31 87 31 C87 33.97 87 36.94 87 40 C88.485 40.495 88.485 40.495 90 41 C89 43 89 43 87.91015625 44.61328125 C86.56407746 48.14312735 87.08726718 51.50514557 87.4375 55.1875 C87.66781397 57.79392438 87.85528432 60.38625758 88 63 C87 64 87 64 84.93359375 64.09765625 C84.10988281 64.08605469 83.28617187 64.07445312 82.4375 64.0625 C81.19806641 64.04896484 81.19806641 64.04896484 79.93359375 64.03515625 C78.97646484 64.01775391 78.97646484 64.01775391 78 64 C76.64908472 61.29816945 76.66141942 58.88191794 76.4375 55.875 C76.35371094 54.77929688 76.26992188 53.68359375 76.18359375 52.5546875 C76.12300781 51.71164062 76.06242187 50.86859375 76 50 C75.5359375 51.4540625 75.5359375 51.4540625 75.0625 52.9375 C74 56 74 56 73 57 C70.66702567 57.04092937 68.33294775 57.04241723 66 57 C66 56.34 66 55.68 66 55 C68.31 55 70.62 55 73 55 C73 52.03 73 49.06 73 46 C70.36 46 67.72 46 65 46 C65 47.98 65 49.96 65 52 C64.34 52 63.68 52 63 52 C62.67 53.32 62.34 54.64 62 56 C59.70858714 56.05384521 57.41681812 56.09272087 55.125 56.125 C53.84882813 56.14820313 52.57265625 56.17140625 51.2578125 56.1953125 C48 56 48 56 46 54 C45.8046875 50.7421875 45.8046875 50.7421875 45.875 46.875 C45.89304687 45.59367187 45.91109375 44.31234375 45.9296875 42.9921875 C45.95289063 42.00476563 45.97609375 41.01734375 46 40 C44.35 40 42.7 40 41 40 C41 42.97 41 45.94 41 49 C39.68 49.66 38.36 50.32 37 51 C37 50.34 37 49.68 37 49 C35.35 49 33.7 49 32 49 C32 40.42 32 31.84 32 23 C26.72 23 21.44 23 16 23 C16 20.36 16 17.72 16 15 C13.03 15 10.06 15 7 15 C7 12.36 7 9.72 7 7 C4.69 7 2.38 7 0 7 C0 4.69 0 2.38 0 0 Z " fill="#ABF947" transform="translate(386,386)"/>
<path d="M0 0 C0.495 8.415 0.495 8.415 1 17 C2.65 17 4.3 17 6 17 C6.99 17 7.98 17 9 17 C9.33 14.03 9.66 11.06 10 8 C11.32 8 12.64 8 14 8 C14.04898438 9.04800781 14.09796875 10.09601563 14.1484375 11.17578125 C14.22348143 12.55471354 14.29902857 13.9336185 14.375 15.3125 C14.4059375 16.00279297 14.436875 16.69308594 14.46875 17.40429688 C14.68124919 21.06990789 14.91933861 22.87900792 17 26 C16.34 26.99 15.68 27.98 15 29 C10.05 29.33 5.1 29.66 0 30 C-0.33 53.76 -0.66 77.52 -1 102 C-5.29 102 -9.58 102 -14 102 C-14 78.57 -14 55.14 -14 31 C-10.535 30.505 -10.535 30.505 -7 30 C-7 27.36 -7 24.72 -7 22 C-12.28 21.67 -17.56 21.34 -23 21 C-23 19.35 -23 17.7 -23 16 C-15.08 15.505 -15.08 15.505 -7 15 C-6.67 10.38 -6.34 5.76 -6 1 C-1 0 -1 0 0 0 Z " fill="#A7FC3A" transform="translate(417,418)"/>
<path d="M0 0 C6.6 0 13.2 0 20 0 C20 23.76 20 47.52 20 72 C15.545 72.495 15.545 72.495 11 73 C10.505 73.99 10.505 73.99 10 75 C8.35 75 6.7 75 5 75 C5 52.56 5 30.12 5 7 C3.35 7 1.7 7 0 7 C0 4.69 0 2.38 0 0 Z " fill="#A7FD37" transform="translate(366,448)"/>
<path d="M0 0 C6.27 0 12.54 0 19 0 C19 23.76 19 47.52 19 72 C16.03 72 13.06 72 10 72 C10 73.65 10 75.3 10 77 C8.35 77 6.7 77 5 77 C5 54.23 5 31.46 5 8 C3.35 8 1.7 8 0 8 C0 5.36 0 2.72 0 0 Z " fill="#A9FD3A" transform="translate(336,456)"/>
<path d="M0 0 C5.28 0 10.56 0 16 0 C16 2.31 16 4.62 16 7 C18.31 7 20.62 7 23 7 C23 9.64 23 12.28 23 15 C17.72 15 12.44 15 7 15 C7 20.28 7 25.56 7 31 C8.65 31 10.3 31 12 31 C12 33.64 12 36.28 12 39 C8.37 39 4.74 39 1 39 C1 63.75 1 88.5 1 114 C-1.31 114 -3.62 114 -6 114 C-6 112.68 -6 111.36 -6 110 C-7.65 110 -9.3 110 -11 110 C-11 84.26 -11 58.52 -11 32 C-15.29 31.67 -19.58 31.34 -24 31 C-24 55.09 -24 79.18 -24 104 C-26.31 104 -28.62 104 -31 104 C-31 102.35 -31 100.7 -31 99 C-33.97 99 -36.94 99 -40 99 C-40 73.92 -40 48.84 -40 23 C-39.34 23 -38.68 23 -38 23 C-38 47.42 -38 71.84 -38 97 C-35.36 97 -32.72 97 -30 97 C-29.67 98.65 -29.34 100.3 -29 102 C-28.01 102 -27.02 102 -26 102 C-26 77.91 -26 53.82 -26 29 C-11 30 -11 30 -9 31 C-9 56.41 -9 81.82 -9 108 C-7.68 108.33 -6.36 108.66 -5 109 C-5 110.32 -5 111.64 -5 113 C-3.35 113 -1.7 113 0 113 C-0.01665459 111.60058418 -0.01665459 111.60058418 -0.03364563 110.17289734 C-0.13492592 101.3884023 -0.20991904 92.60402542 -0.25906086 83.8190794 C-0.28517464 79.30239755 -0.32060447 74.78618634 -0.37719727 70.26977539 C-0.43145462 65.91256386 -0.46140711 61.55580546 -0.47438622 57.19828224 C-0.4836375 55.53441036 -0.50170321 53.87056377 -0.52865028 52.20688438 C-0.56485964 49.87915501 -0.56994912 47.55330668 -0.56762695 45.2253418 C-0.58560333 44.53482224 -0.60357971 43.84430267 -0.62210083 43.13285828 C-0.60127258 41.20805359 -0.60127258 41.20805359 0 38 C2.53547668 36.29841614 2.53547668 36.29841614 5 35 C5 31.53306252 4.79998832 28.19986566 4.5 24.75 C4.4071875 23.67234375 4.314375 22.5946875 4.21875 21.484375 C4.11046875 20.25460937 4.11046875 20.25460937 4 19 C3.01 19.99 2.02 20.98 1 22 C0.75057533 19.58388629 0.52492499 17.16940879 0.3125 14.75 C0.23966797 14.06808594 0.16683594 13.38617188 0.09179688 12.68359375 C-0.17655152 9.43184265 -0.25378145 7.43345592 1.41796875 4.578125 C2.20107422 3.79695313 2.20107422 3.79695313 3 3 C3.33 2.67 3.66 2.34 4 2 C2.68 1.67 1.36 1.34 0 1 C0 0.67 0 0.34 0 0 Z " fill="#A5DC59" transform="translate(472,425)"/>
<path d="M0 0 C1.85408125 -0.02740022 3.70828469 -0.04657422 5.5625 -0.0625 C6.59503906 -0.07410156 7.62757813 -0.08570313 8.69140625 -0.09765625 C12 0 12 0 19 1 C19 25.75 19 50.5 19 76 C15.04 76 11.08 76 7 76 C7 53.56 7 31.12 7 8 C4.69 8 2.38 8 0 8 C0 5.36 0 2.72 0 0 Z " fill="#ADFA47" transform="translate(305,463)"/>
<path d="M0 0 C2.64 0 5.28 0 8 0 C8 2.31 8 4.62 8 7 C5.36 7 2.72 7 0 7 C0 9.31 0 11.62 0 14 C-2.64 14 -5.28 14 -8 14 C-8.33 18.62 -8.66 23.24 -9 28 C-10.98 28 -12.96 28 -15 28 C-15 31.3 -15 34.6 -15 38 C-17.64 38 -20.28 38 -23 38 C-23 40.31 -23 42.62 -23 45 C-25.64 45 -28.28 45 -31 45 C-31 50.61 -31 56.22 -31 62 C-33.97 62 -36.94 62 -40 62 C-40 64.31 -40 66.62 -40 69 C-42.31 69 -44.62 69 -47 69 C-47 66.36 -47 63.72 -47 61 C-44.69 61 -42.38 61 -40 61 C-40 55.72 -40 50.44 -40 45 C-37.36 45 -34.72 45 -32 45 C-32 42.36 -32 39.72 -32 37 C-29.36 37 -26.72 37 -24 37 C-24 31.72 -24 26.44 -24 21 C-21.03 21 -18.06 21 -15 21 C-15 18.69 -15 16.38 -15 14 C-13.02 14 -11.04 14 -9 14 C-9 11.36 -9 8.72 -9 6 C-6.03 6 -3.06 6 0 6 C0 4.02 0 2.04 0 0 Z " fill="#545281" transform="translate(289,548)"/>
<path d="M0 0 C5.28 0 10.56 0 16 0 C16 2.31 16 4.62 16 7 C18.31 7 20.62 7 23 7 C23 9.64 23 12.28 23 15 C17.72 15 12.44 15 7 15 C7 20.28 7 25.56 7 31 C8.65 31 10.3 31 12 31 C12 33.64 12 36.28 12 39 C8.37 39 4.74 39 1 39 C1 63.75 1 88.5 1 114 C0.34 113.67 -0.32 113.34 -1 113 C-0.9851422 103.27276369 -0.94362623 93.54604363 -0.86790943 83.8190794 C-0.83359324 79.30257695 -0.80852233 74.7864144 -0.80444336 70.26977539 C-0.80017022 65.91227548 -0.77179054 61.55554291 -0.72656822 57.19828224 C-0.71356146 55.53452839 -0.70929677 53.87068285 -0.71384621 52.20688438 C-0.71873012 49.8788569 -0.69276387 47.55309145 -0.65942383 45.2253418 C-0.67236229 44.18956245 -0.67236229 44.18956245 -0.68556213 43.13285828 C-0.63923645 41.20805359 -0.63923645 41.20805359 0 38 C2.54121399 36.29841614 2.54121399 36.29841614 5 35 C5 31.53306252 4.79998832 28.19986566 4.5 24.75 C4.4071875 23.67234375 4.314375 22.5946875 4.21875 21.484375 C4.1465625 20.66453125 4.074375 19.8446875 4 19 C3.01 19.99 2.02 20.98 1 22 C0.75057533 19.58388629 0.52492499 17.16940879 0.3125 14.75 C0.20325195 13.72712891 0.20325195 13.72712891 0.09179688 12.68359375 C-0.17655152 9.43184265 -0.25378145 7.43345592 1.41796875 4.578125 C1.94003906 4.05734375 2.46210938 3.5365625 3 3 C3.33 2.67 3.66 2.34 4 2 C2.68 1.67 1.36 1.34 0 1 C0 0.67 0 0.34 0 0 Z " fill="#B4F853" transform="translate(472,425)"/>
<path d="M0 0 C5.28 0 10.56 0 16 0 C16 2.31 16 4.62 16 7 C21.28 7 26.56 7 32 7 C32.495 13.93 32.495 13.93 33 21 C27.72 21 22.44 21 17 21 C17 19.02 17 17.04 17 15 C13.7 15 10.4 15 7 15 C7 12.36 7 9.72 7 7 C4.69 7 2.38 7 0 7 C0 4.69 0 2.38 0 0 Z " fill="#A4F245" transform="translate(386,386)"/>
<path d="M0 0 C6.6 0 13.2 0 20 0 C20 23.76 20 47.52 20 72 C15.545 72.495 15.545 72.495 11 73 C10.505 73.99 10.505 73.99 10 75 C8.35 75 6.7 75 5 75 C5 52.56 5 30.12 5 7 C3.35 7 1.7 7 0 7 C0 4.69 0 2.38 0 0 Z M6 4 C6.33 26.11 6.66 48.22 7 71 C12.445 70.505 12.445 70.505 18 70 C18 47.56 18 25.12 18 2 C10.4472136 1.40371521 10.4472136 1.40371521 6 4 Z " fill="#B3F060" transform="translate(366,448)"/>
<path d="M0 0 C2.97 0 5.94 0 9 0 C9 0.33 9 0.66 9 1 C6.36 1 3.72 1 1 1 C1 5.95 1 10.9 1 16 C3.64 16 6.28 16 9 16 C9 16.33 9 16.66 9 17 C6.36 17 3.72 17 1 17 C1 19.31 1 21.62 1 24 C-1.64 24 -4.28 24 -7 24 C-7 29.61 -7 35.22 -7 41 C-9.97 41 -12.94 41 -16 41 C-16 43.31 -16 45.62 -16 48 C-18.31 48 -20.62 48 -23 48 C-23 45.36 -23 42.72 -23 40 C-20.69 40 -18.38 40 -16 40 C-16 34.72 -16 29.44 -16 24 C-13.36 24 -10.72 24 -8 24 C-8 21.36 -8 18.72 -8 16 C-5.36 16 -2.72 16 0 16 C0 10.72 0 5.44 0 0 Z " fill="#39355B" transform="translate(265,569)"/>
<path d="M0 0 C2.64 0 5.28 0 8 0 C8 2.97 8 5.94 8 9 C5.69 9 3.38 9 1 9 C1 11.31 1 13.62 1 16 C-4.28 16 -9.56 16 -15 16 C-15 18.64 -15 21.28 -15 24 C-17.31 24 -19.62 24 -22 24 C-22 18.72 -22 13.44 -22 8 C-14.74 8 -7.48 8 0 8 C0 5.36 0 2.72 0 0 Z " fill="#555180" transform="translate(217,633)"/>
<path d="M0 0 C2.97 0 5.94 0 9 0 C9 5.28 9 10.56 9 16 C8.67 16 8.34 16 8 16 C7.67 11.38 7.34 6.76 7 2 C5.35 2 3.7 2 2 2 C2.01160156 2.99902344 2.02320313 3.99804688 2.03515625 5.02734375 C2.04417969 6.31769531 2.05320312 7.60804688 2.0625 8.9375 C2.07410156 10.22527344 2.08570313 11.51304687 2.09765625 12.83984375 C2 16 2 16 1 17 C-1.69654854 17.07319621 -4.36691458 17.09242537 -7.0625 17.0625 C-7.82111328 17.05798828 -8.57972656 17.05347656 -9.36132812 17.04882812 C-11.24091871 17.0370068 -13.12046899 17.01907078 -15 17 C-15 18.65 -15 20.3 -15 22 C-13.85660156 21.98839844 -12.71320313 21.97679687 -11.53515625 21.96484375 C-10.04427246 21.95546712 -8.55338691 21.94636679 -7.0625 21.9375 C-6.30775391 21.92912109 -5.55300781 21.92074219 -4.77539062 21.91210938 C-2.85005687 21.90347559 -0.92464419 21.94775667 1 22 C2 23 2 23 2.1328125 24.8125 C2.13023437 25.534375 2.12765625 26.25625 2.125 27 C2.12886719 28.0828125 2.12886719 28.0828125 2.1328125 29.1875 C2 31 2 31 1 32 C-1.31 32 -3.62 32 -6 32 C-6 55.43 -6 78.86 -6 103 C-1.71 103 2.58 103 7 103 C7 79.24 7 55.48 7 31 C7.33 31 7.66 31 8 31 C8.33 55.09 8.66 79.18 9 104 C3.72 104 -1.56 104 -7 104 C-7 79.91 -7 55.82 -7 31 C-4.69 31 -2.38 31 0 31 C0 28.36 0 25.72 0 23 C-5.28 23 -10.56 23 -16 23 C-16 20.36 -16 17.72 -16 15 C-10.72 15 -5.44 15 0 15 C0 10.05 0 5.1 0 0 Z " fill="#BBF56C" transform="translate(409,417)"/>
<path d="M0 0 C0.66 0 1.32 0 2 0 C2 3.3 2 6.6 2 10 C-1.63 10 -5.26 10 -9 10 C-8.99555878 10.87839035 -8.99111755 11.7567807 -8.98654175 12.66178894 C-8.94644455 20.94540877 -8.91600515 29.22899593 -8.89637566 37.51269054 C-8.88594465 41.77127922 -8.87179791 46.02978761 -8.84912109 50.28833008 C-8.82736837 54.39912517 -8.81542623 58.50984309 -8.81024551 62.6206913 C-8.80655412 64.18795295 -8.79934575 65.75521045 -8.78853989 67.32243919 C-8.77399258 69.51998348 -8.7720234 71.71721012 -8.77294922 73.91479492 C-8.768508 75.16499924 -8.76406677 76.41520355 -8.75949097 77.70329285 C-9 81 -9 81 -11 86 C-16.61 86 -22.22 86 -28 86 C-28 84.68 -28 83.36 -28 82 C-32.95 82 -37.9 82 -43 82 C-43 81.67 -43 81.34 -43 81 C-35.08 80.505 -35.08 80.505 -27 80 C-26.67 81.32 -26.34 82.64 -26 84 C-24.02 83.505 -24.02 83.505 -22 83 C-22 82.01 -22 81.02 -22 80 C-20.68 80 -19.36 80 -18 80 C-18 80.99 -18 81.98 -18 83 C-15.69 83 -13.38 83 -11 83 C-11 58.25 -11 33.5 -11 8 C-7.37 8 -3.74 8 0 8 C0 5.36 0 2.72 0 0 Z " fill="#051404" transform="translate(484,456)"/>
<path d="M0 0 C5.61 0 11.22 0 17 0 C17 2.64 17 5.28 17 8 C11.72 8 6.44 8 1 8 C1 10.64 1 13.28 1 16 C-3.95 16 -8.9 16 -14 16 C-14 13.36 -14 10.72 -14 8 C-9.38 8 -4.76 8 0 8 C0 5.36 0 2.72 0 0 Z " fill="#AAE46D" transform="translate(320,417)"/>
<path d="M0 0 C4.62 0 9.24 0 14 0 C14 5.28 14 10.56 14 16 C9.38 16 4.76 16 0 16 C0 10.72 0 5.44 0 0 Z " fill="#100D20" transform="translate(433,425)"/>
<path d="M0 0 C2.64 0 5.28 0 8 0 C8 2.64 8 5.28 8 8 C5.36 8 2.72 8 0 8 C0 10.64 0 13.28 0 16 C-2.64 16 -5.28 16 -8 16 C-8 18.64 -8 21.28 -8 24 C-10.64 24 -13.28 24 -16 24 C-16 21.03 -16 18.06 -16 15 C-13.69 15 -11.38 15 -9 15 C-9 12.36 -9 9.72 -9 7 C-6.03 7 -3.06 7 0 7 C0 4.69 0 2.38 0 0 Z " fill="#524D7B" transform="translate(187,657)"/>
<path d="M0 0 C6.27 0 12.54 0 19 0 C19 23.76 19 47.52 19 72 C16.03 72 13.06 72 10 72 C14 70 14 70 16 70 C16.33 47.56 16.66 25.12 17 2 C11.72 2 6.44 2 1 2 C1 3.65 1 5.3 1 7 C2.98 7.495 2.98 7.495 5 8 C3.35 8 1.7 8 0 8 C0 5.36 0 2.72 0 0 Z " fill="#B5F261" transform="translate(336,456)"/>
<path d="M0 0 C3.47914941 -0.02887814 6.95826831 -0.04675687 10.4375 -0.0625 C11.92733398 -0.07506836 11.92733398 -0.07506836 13.44726562 -0.08789062 C14.39150391 -0.09111328 15.33574219 -0.09433594 16.30859375 -0.09765625 C17.62041626 -0.10551147 17.62041626 -0.10551147 18.95874023 -0.11352539 C21 0 21 0 22 1 C22.09443335 3.30053835 22.11742128 5.60402173 22.11352539 7.90649414 C22.11367142 8.62840439 22.11381744 9.35031464 22.1139679 10.09410095 C22.11326869 12.49114947 22.10547595 14.88812123 22.09765625 17.28515625 C22.0957921 18.94282489 22.09436818 20.60049407 22.09336853 22.25816345 C22.08954312 26.62954214 22.07971265 31.00088781 22.06866455 35.37225342 C22.05845092 39.82954461 22.05387101 44.28684111 22.04882812 48.74414062 C22.0380904 57.49610893 22.02101371 66.24805036 22 75 C18.37 75 14.74 75 11 75 C11 74.67 11 74.34 11 74 C13.97 74 16.94 74 20 74 C20 50.24 20 26.48 20 2 C13.4 2 6.8 2 0 2 C0 1.34 0 0.68 0 0 Z " fill="#192C0E" transform="translate(366,446)"/>
<path d="M0 0 C2.64 0 5.28 0 8 0 C8 2.64 8 5.28 8 8 C5.36 8 2.72 8 0 8 C0 10.64 0 13.28 0 16 C-2.64 16 -5.28 16 -8 16 C-8 18.31 -8 20.62 -8 23 C-10.64 23 -13.28 23 -16 23 C-16 20.36 -16 17.72 -16 15 C-13.36 15 -10.72 15 -8 15 C-8 12.69 -8 10.38 -8 8 C-5.36 7.67 -2.72 7.34 0 7 C0 4.69 0 2.38 0 0 Z " fill="#4A4374" transform="translate(163,681)"/>
<path d="M0 0 C5.28 0 10.56 0 16 0 C16 0.33 16 0.66 16 1 C11.38 1 6.76 1 2 1 C2 2.98 2 4.96 2 7 C1 8 1 8 -1.22485352 8.11352539 C-2.18319092 8.10828857 -3.14152832 8.10305176 -4.12890625 8.09765625 C-5.68061523 8.09282227 -5.68061523 8.09282227 -7.26367188 8.08789062 C-8.35228516 8.07951172 -9.44089844 8.07113281 -10.5625 8.0625 C-12.2012207 8.05573242 -12.2012207 8.05573242 -13.87304688 8.04882812 C-16.58208495 8.03699826 -19.29101599 8.02051543 -22 8 C-21.979375 9.11375 -21.95875 10.2275 -21.9375 11.375 C-22 15 -22 15 -23 17 C-25.64 17 -28.28 17 -31 17 C-30.979375 17.969375 -30.95875 18.93875 -30.9375 19.9375 C-31 23 -31 23 -32 24 C-34.53049402 24.07313567 -37.03304837 24.09247527 -39.5625 24.0625 C-40.62887695 24.05573242 -40.62887695 24.05573242 -41.71679688 24.04882812 C-43.47790013 24.03700864 -45.23896036 24.01907263 -47 24 C-46.979375 25.11375 -46.95875 26.2275 -46.9375 27.375 C-47 31 -47 31 -48 33 C-52.62 33 -57.24 33 -62 33 C-62 34.98 -62 36.96 -62 39 C-64 41 -64 41 -67.4375 41.25 C-71 41 -71 41 -74 39 C-70.7 39 -67.4 39 -64 39 C-64 36.36 -64 33.72 -64 31 C-59.05 31 -54.1 31 -49 31 C-49 28.36 -49 25.72 -49 23 C-43.72 23 -38.44 23 -33 23 C-33 20.36 -33 17.72 -33 15 C-30.03 15 -27.06 15 -24 15 C-24 12.36 -24 9.72 -24 7 C-16.08 7 -8.16 7 0 7 C0 4.69 0 2.38 0 0 Z " fill="#091A06" transform="translate(370,402)"/>
<path d="M0 0 C7.92 0 15.84 0 24 0 C24 2.64 24 5.28 24 8 C16.08 8 8.16 8 0 8 C0 5.36 0 2.72 0 0 Z " fill="#AADD66" transform="translate(346,401)"/>
<path d="M0 0 C4.62 0 9.24 0 14 0 C14 2.64 14 5.28 14 8 C12.02 8 10.04 8 8 8 C8 10.97 8 13.94 8 17 C5.36 17 2.72 17 0 17 C0 11.39 0 5.78 0 0 Z " fill="#131A15" transform="translate(418,417)"/>
<path d="M0 0 C4.95 0 9.9 0 15 0 C15 2.97 15 5.94 15 9 C16.32 9.33 17.64 9.66 19 10 C17.68 10.33 16.36 10.66 15 11 C15.33 12.32 15.66 13.64 16 15 C13.03 15 10.06 15 7 15 C7 12.36 7 9.72 7 7 C4.69 7 2.38 7 0 7 C0 4.69 0 2.38 0 0 Z " fill="#AAFC3F" transform="translate(386,386)"/>
<path d="M0 0 C2.64 0 5.28 0 8 0 C8 2.97 8 5.94 8 9 C5.36 9 2.72 9 0 9 C0 11.31 0 13.62 0 16 C-1.65 16.33 -3.3 16.66 -5 17 C-5.33 18.65 -5.66 20.3 -6 22 C-8.97 22 -11.94 22 -15 22 C-15 20.02 -15 18.04 -15 16 C-12.03 16 -9.06 16 -6 16 C-6 13.36 -6 10.72 -6 8 C-4.02 8 -2.04 8 0 8 C0 5.36 0 2.72 0 0 Z " fill="#44426D" transform="translate(123,720)"/>
<path d="M0 0 C0.66 0 1.32 0 2 0 C2 24.42 2 48.84 2 74 C4.64 74 7.28 74 10 74 C10 74.66 10 75.32 10 76 C6.7 76 3.4 76 0 76 C0 50.92 0 25.84 0 0 Z " fill="#B3F05F" transform="translate(432,448)"/>
<path d="M0 0 C0.91652344 0.01160156 1.83304687 0.02320313 2.77734375 0.03515625 C3.69644531 0.04417969 4.61554688 0.05320312 5.5625 0.0625 C6.27277344 0.07410156 6.98304688 0.08570313 7.71484375 0.09765625 C7.71484375 3.06765625 7.71484375 6.03765625 7.71484375 9.09765625 C-0.86515625 9.09765625 -9.44515625 9.09765625 -18.28515625 9.09765625 C-18.28515625 11.73765625 -18.28515625 14.37765625 -18.28515625 17.09765625 C-22.90515625 17.09765625 -27.52515625 17.09765625 -32.28515625 17.09765625 C-32.28515625 19.40765625 -32.28515625 21.71765625 -32.28515625 24.09765625 C-35.58515625 24.09765625 -38.88515625 24.09765625 -42.28515625 24.09765625 C-42.28515625 23.76765625 -42.28515625 23.43765625 -42.28515625 23.09765625 C-39.31515625 23.09765625 -36.34515625 23.09765625 -33.28515625 23.09765625 C-33.30578125 21.96328125 -33.32640625 20.82890625 -33.34765625 19.66015625 C-33.28515625 16.09765625 -33.28515625 16.09765625 -32.28515625 15.09765625 C-30.09876172 15.02506679 -27.91015236 15.01391842 -25.72265625 15.03515625 C-23.92634766 15.04869141 -23.92634766 15.04869141 -22.09375 15.0625 C-21.16691406 15.07410156 -20.24007813 15.08570313 -19.28515625 15.09765625 C-19.28515625 12.78765625 -19.28515625 10.47765625 -19.28515625 8.09765625 C-14.00515625 8.09765625 -8.72515625 8.09765625 -3.28515625 8.09765625 C-3.28515625 5.78765625 -3.28515625 3.47765625 -3.28515625 1.09765625 C-2.28515625 0.09765625 -2.28515625 0.09765625 0 0 Z " fill="#152A08" transform="translate(338.28515625,407.90234375)"/>
<path d="M0 0 C5.61 0 11.22 0 17 0 C17 1.98 17 3.96 17 6 C18.39025391 5.98259766 18.39025391 5.98259766 19.80859375 5.96484375 C21.00613281 5.95582031 22.20367187 5.94679688 23.4375 5.9375 C24.63246094 5.92589844 25.82742188 5.91429687 27.05859375 5.90234375 C30 6 30 6 31 7 C31.04092937 9.33297433 31.04241723 11.66705225 31 14 C31.71655762 13.98952637 32.43311523 13.97905273 33.17138672 13.96826172 C36.40588905 13.92678701 39.64033553 13.90070108 42.875 13.875 C44.00292969 13.85824219 45.13085938 13.84148437 46.29296875 13.82421875 C47.36933594 13.81777344 48.44570313 13.81132812 49.5546875 13.8046875 C50.54968262 13.79421387 51.54467773 13.78374023 52.56982422 13.77294922 C55 14 55 14 57 16 C57.125 19.125 57.125 19.125 57 22 C58.39025391 21.98259766 58.39025391 21.98259766 59.80859375 21.96484375 C61.00613281 21.95582031 62.20367187 21.94679688 63.4375 21.9375 C64.63246094 21.92589844 65.82742188 21.91429687 67.05859375 21.90234375 C70 22 70 22 71 23 C71.14115161 25.67058851 71.04247107 28.32432238 71 31 C70.67 31 70.34 31 70 31 C70 28.69 70 26.38 70 24 C65.05 24 60.1 24 55 24 C55 21.36 55 18.72 55 16 C46.75 16 38.5 16 30 16 C30 13.36 30 10.72 30 8 C25.05 8 20.1 8 15 8 C15 5.69 15 3.38 15 1 C10.05 1 5.1 1 0 1 C0 0.67 0 0.34 0 0 Z " fill="#14280E" transform="translate(418,401)"/>
<path d="M0 0 C2.64 0 5.28 0 8 0 C8 0.33 8 0.66 8 1 C5.69 1 3.38 1 1 1 C1 3.31 1 5.62 1 8 C6.28 8 11.56 8 17 8 C17 5.69 17 3.38 17 1 C17.33 1 17.66 1 18 1 C18 3.64 18 6.28 18 9 C12.72 9 7.44 9 2 9 C2 11.64 2 14.28 2 17 C-2.29 17 -6.58 17 -11 17 C-11 14.03 -11 11.06 -11 8 C-7.37 8 -3.74 8 0 8 C0 5.36 0 2.72 0 0 Z " fill="#807F88" transform="translate(337,648)"/>
<path d="M0 0 C2.31 0 4.62 0 7 0 C7 10.23 7 20.46 7 31 C6.34 31 5.68 31 5 31 C4.80578562 28.04196565 4.61933814 25.08379837 4.4375 22.125 C4.38142578 21.28324219 4.32535156 20.44148437 4.26757812 19.57421875 C4.21923828 18.76855469 4.17089844 17.96289062 4.12109375 17.1328125 C4.0739624 16.38918457 4.02683105 15.64555664 3.97827148 14.87939453 C4 13 4 13 5 11 C4.21625 11.20625 3.4325 11.4125 2.625 11.625 C1.75875 11.74875 0.8925 11.8725 0 12 C-0.66 11.34 -1.32 10.68 -2 10 C-5.09926819 10.32198966 -5.09926819 10.32198966 -8 11 C-7.67 10.01 -7.34 9.02 -7 8 C-4.69 8 -2.38 8 0 8 C0 5.36 0 2.72 0 0 Z " fill="#4F4D74" transform="translate(456,609)"/>
<path d="M0 0 C2.64 0 5.28 0 8 0 C8 2.31 8 4.62 8 7 C5.36 7 2.72 7 0 7 C0 9.31 0 11.62 0 14 C-2.64 14 -5.28 14 -8 14 C-8 15.65 -8 17.3 -8 19 C-8.33 19 -8.66 19 -9 19 C-9 14.71 -9 10.42 -9 6 C-6.03 6 -3.06 6 0 6 C0 4.02 0 2.04 0 0 Z " fill="#45416B" transform="translate(289,548)"/>
<path d="M0 0 C4.95 0 9.9 0 15 0 C15 2.64 15 5.28 15 8 C10.05 8 5.1 8 0 8 C0 5.36 0 2.72 0 0 Z " fill="#B3EC69" transform="translate(306,425)"/>
<path d="M0 0 C4.95 0 9.9 0 15 0 C15 2.64 15 5.28 15 8 C10.05 8 5.1 8 0 8 C0 5.36 0 2.72 0 0 Z " fill="#B2F15B" transform="translate(370,393)"/>
<path d="M0 0 C1.32 0 2.64 0 4 0 C4 0.66 4 1.32 4 2 C4.99 2 5.98 2 7 2 C7.33 1.34 7.66 0.68 8 0 C8 4.95 8 9.9 8 15 C5.36 15 2.72 15 0 15 C0 10.05 0 5.1 0 0 Z " fill="#504E7E" transform="translate(249,594)"/>
<path d="M0 0 C2.64 0 5.28 0 8 0 C8 4.62 8 9.24 8 14 C5.36 14 2.72 14 0 14 C0 9.38 0 4.76 0 0 Z " fill="#152609" transform="translate(464,434)"/>
<path d="M0 0 C4.95 0 9.9 0 15 0 C15.66 1.98 16.32 3.96 17 6 C20.3 6.33 23.6 6.66 27 7 C27.02687279 8.81242052 27.04633715 10.62495233 27.0625 12.4375 C27.07410156 13.44683594 27.08570313 14.45617187 27.09765625 15.49609375 C27 18 27 18 26 19 C23.66702567 19.04092937 21.33294775 19.04241723 19 19 C19 18.34 19 17.68 19 17 C21.31 17 23.62 17 26 17 C26 14.03 26 11.06 26 8 C23.36 8 20.72 8 18 8 C18 9.98 18 11.96 18 14 C17.34 14 16.68 14 16 14 C15.67 15.32 15.34 16.64 15 18 C10.38 18 5.76 18 1 18 C1 17.67 1 17.34 1 17 C5.29 17 9.58 17 14 17 C14 11.72 14 6.44 14 1 C9.38 1 4.76 1 0 1 C0 0.67 0 0.34 0 0 Z " fill="#AFE665" transform="translate(433,424)"/>
<path d="M0 0 C2.64 0 5.28 0 8 0 C8 2.97 8 5.94 8 9 C5.69 9 3.38 9 1 9 C1 11.31 1 13.62 1 16 C-4.28 16 -9.56 16 -15 16 C-15 18.64 -15 21.28 -15 24 C-15.33 24 -15.66 24 -16 24 C-16 21.03 -16 18.06 -16 15 C-10.72 15 -5.44 15 0 15 C0 10.05 0 5.1 0 0 Z " fill="#403C63" transform="translate(217,633)"/>
<path d="M0 0 C5.28 0 10.56 0 16 0 C16 1.98 16 3.96 16 6 C10.72 6 5.44 6 0 6 C0 4.02 0 2.04 0 0 Z " fill="#4F4D7C" transform="translate(91,736)"/>
<path d="M0 0 C2.97 0 5.94 0 9 0 C9 5.28 9 10.56 9 16 C8.67 16 8.34 16 8 16 C7.67 11.38 7.34 6.76 7 2 C5.35 2 3.7 2 2 2 C2.01160156 2.99902344 2.02320313 3.99804688 2.03515625 5.02734375 C2.04417969 6.31769531 2.05320312 7.60804688 2.0625 8.9375 C2.07410156 10.22527344 2.08570313 11.51304687 2.09765625 12.83984375 C2 16 2 16 1 17 C-1.86267567 17.07325168 -4.700719 17.09238205 -7.5625 17.0625 C-8.36880859 17.05798828 -9.17511719 17.05347656 -10.00585938 17.04882812 C-12.00393756 17.03700518 -14.00197783 17.01906914 -16 17 C-16 16.34 -16 15.68 -16 15 C-10.72 15 -5.44 15 0 15 C0 10.05 0 5.1 0 0 Z " fill="#A4D65F" transform="translate(409,417)"/>
<path d="M0 0 C0.66 0 1.32 0 2 0 C2 3.3 2 6.6 2 10 C-1.96 9.67 -5.92 9.34 -10 9 C-10 28.47 -10 47.94 -10 68 C-10.33 68 -10.66 68 -11 68 C-11 48.2 -11 28.4 -11 8 C-7.37 8 -3.74 8 0 8 C0 5.36 0 2.72 0 0 Z " fill="#092600" transform="translate(484,456)"/>
<path d="M0 0 C0.33 0 0.66 0 1 0 C1.00586624 0.75310959 1.01173248 1.50621918 1.01777649 2.28215027 C1.07574392 9.38870303 1.14784357 16.49494024 1.23571491 23.60117626 C1.28039218 27.25435862 1.31965377 30.90743015 1.34643555 34.56079102 C1.37249545 38.08826179 1.41291592 41.61530546 1.46318626 45.14251137 C1.48792576 47.13927679 1.49789298 49.13620755 1.50764465 51.13310242 C1.52743881 52.35399063 1.54723297 53.57487885 1.56762695 54.83276367 C1.57873001 55.90531906 1.58983307 56.97787445 1.60127258 58.08293152 C2.05234349 61.38294217 3.22347311 63.22354756 5 66 C5 66.99 5 67.98 5 69 C3.35 69 1.7 69 0 69 C0 46.23 0 23.46 0 0 Z " fill="#B8F772" transform="translate(341,464)"/>
<path d="M0 0 C4.95 0 9.9 0 15 0 C15 2.64 15 5.28 15 8 C14.67 8 14.34 8 14 8 C13.67 6.35 13.34 4.7 13 3 C9.7 3 6.4 3 3 3 C2.67 3.66 2.34 4.32 2 5 C3.4540625 4.9690625 3.4540625 4.9690625 4.9375 4.9375 C8 5 8 5 9 6 C9.14115161 8.67058851 9.04247107 11.32432238 9 14 C11.31 14 13.62 14 16 14 C16 14.33 16 14.66 16 15 C13.03 15 10.06 15 7 15 C7 12.36 7 9.72 7 7 C4.69 7 2.38 7 0 7 C0 4.69 0 2.38 0 0 Z " fill="#BEF968" transform="translate(386,386)"/>
<path d="M0 0 C6.93 0 13.86 0 21 0 C21 1.32 21 2.64 21 4 C14.07 4 7.14 4 0 4 C0 2.68 0 1.36 0 0 Z " fill="#A7FA39" transform="translate(348,403)"/>
<path d="M0 0 C4.62 0 9.24 0 14 0 C14 5.28 14 10.56 14 16 C9.38 16 4.76 16 0 16 C0 10.72 0 5.44 0 0 Z M2 2 C1.92755947 4.01964199 1.91622812 6.04167124 1.9375 8.0625 C1.94652344 9.16722656 1.95554687 10.27195312 1.96484375 11.41015625 C1.97644531 12.26480469 1.98804688 13.11945313 2 14 C5.63 14 9.26 14 13 14 C13 9.71 13 5.42 13 1 C7.22349951 0.37599062 7.22349951 0.37599062 2 2 Z " fill="#0A2000" transform="translate(433,425)"/>
<path d="M0 0 C5.61 0 11.22 0 17 0 C17 2.64 17 5.28 17 8 C14.03 8 11.06 8 8 8 C8.33 6.35 8.66 4.7 9 3 C7.700625 2.87625 6.40125 2.7525 5.0625 2.625 C2.84765625 2.4140625 2.84765625 2.4140625 1 2 C0.67 1.34 0.34 0.68 0 0 Z " fill="#121C12" transform="translate(401,409)"/>
<path d="M0 0 C0 0.99 0 1.98 0 3 C1.32 2.67 2.64 2.34 4 2 C4 1.01 4 0.02 4 -1 C5.32 -1 6.64 -1 8 -1 C8 -0.01 8 0.98 8 2 C10.64 2 13.28 2 16 2 C15.67 2.99 15.34 3.98 15 5 C9.39 5 3.78 5 -2 5 C-2 3.68 -2 2.36 -2 1 C-6.95 1 -11.9 1 -17 1 C-17 0.67 -17 0.34 -17 0 C-14.72979256 -0.19493195 -12.45879711 -0.38070418 -10.1875 -0.5625 C-8.92292969 -0.66691406 -7.65835937 -0.77132812 -6.35546875 -0.87890625 C-3 -1 -3 -1 0 0 Z " fill="#0C1015" transform="translate(458,537)"/>
<path d="M0 0 C3.63 0 7.26 0 11 0 C11 2.31 11 4.62 11 7 C7.37 7 3.74 7 0 7 C0 4.69 0 2.38 0 0 Z " fill="#FCFCFB" transform="translate(327,657)"/>
<path d="M0 0 C2.31 0 4.62 0 7 0 C7.492569 7.38853503 7.492569 7.38853503 5.1875 10.25 C4.465625 10.8275 3.74375 11.405 3 12 C2.01 13.32 1.02 14.64 0 16 C0 10.72 0 5.44 0 0 Z " fill="#48466B" transform="translate(433,585)"/>
<path d="M0 0 C2.97 0 5.94 0 9 0 C9 2.64 9 5.28 9 8 C6.03 8 3.06 8 0 8 C0 5.36 0 2.72 0 0 Z " fill="#514E7D" transform="translate(233,617)"/>
<path d="M0 0 C2.97 0 5.94 0 9 0 C9 2.64 9 5.28 9 8 C6.03 8 3.06 8 0 8 C0 5.36 0 2.72 0 0 Z " fill="#B0E26E" transform="translate(297,433)"/>
<path d="M0 0 C2.97 0 5.94 0 9 0 C9 2.64 9 5.28 9 8 C6.03 8 3.06 8 0 8 C0 5.36 0 2.72 0 0 Z " fill="#B1F358" transform="translate(337,409)"/>
<path d="M0 0 C4.62 0 9.24 0 14 0 C14 2.64 14 5.28 14 8 C22.25 8 30.5 8 39 8 C39 10.64 39 13.28 39 16 C38.67 16 38.34 16 38 16 C38 13.69 38 11.38 38 9 C29.42 9 20.84 9 12 9 C12 6.69 12 4.38 12 2 C8.04 1.67 4.08 1.34 0 1 C0 0.67 0 0.34 0 0 Z " fill="#A1D365" transform="translate(434,409)"/>
<path d="M0 0 C2.64 0 5.28 0 8 0 C8 2.64 8 5.28 8 8 C5.36 8 2.72 8 0 8 C0 5.36 0 2.72 0 0 Z " fill="#514D7B" transform="translate(608,808)"/>
<path d="M0 0 C2.64 0 5.28 0 8 0 C8 2.64 8 5.28 8 8 C5.36 8 2.72 8 0 8 C0 5.36 0 2.72 0 0 Z " fill="#514C81" transform="translate(338,776)"/>
<path d="M0 0 C2.64 0 5.28 0 8 0 C8 2.64 8 5.28 8 8 C5.36 8 2.72 8 0 8 C0 5.36 0 2.72 0 0 Z " fill="#52507E" transform="translate(346,768)"/>
<path d="M0 0 C2.64 0 5.28 0 8 0 C8 2.64 8 5.28 8 8 C5.36 8 2.72 8 0 8 C0 5.36 0 2.72 0 0 Z " fill="#514F7F" transform="translate(354,760)"/>
<path d="M0 0 C2.64 0 5.28 0 8 0 C8 2.64 8 5.28 8 8 C5.36 8 2.72 8 0 8 C0 5.36 0 2.72 0 0 Z " fill="#514C7D" transform="translate(83,752)"/>
<path d="M0 0 C2.64 0 5.28 0 8 0 C8 2.64 8 5.28 8 8 C5.36 8 2.72 8 0 8 C0 5.36 0 2.72 0 0 Z " fill="#575581" transform="translate(362,752)"/>
<path d="M0 0 C2.64 0 5.28 0 8 0 C8 2.64 8 5.28 8 8 C5.36 8 2.72 8 0 8 C0 5.36 0 2.72 0 0 Z " fill="#565180" transform="translate(131,712)"/>
<path d="M0 0 C2.97 0 5.94 0 9 0 C9 2.31 9 4.62 9 7 C6.03 7 3.06 7 0 7 C0 4.69 0 2.38 0 0 Z " fill="#514E7D" transform="translate(91,745)"/>
<path d="M0 0 C1.32 0 2.64 0 4 0 C4 9.9 4 19.8 4 30 C3.34 30 2.68 30 2 30 C0.61702128 10.65957447 0.61702128 10.65957447 2 1 C1.34 0.67 0.68 0.34 0 0 Z " fill="#4B496A" transform="translate(459,610)"/>
<path d="M0 0 C2.31 0 4.62 0 7 0 C7 2.97 7 5.94 7 9 C4.69 9 2.38 9 0 9 C0 6.03 0 3.06 0 0 Z " fill="#0F2705" transform="translate(452,432)"/>
<path d="M0 0 C2.31 0 4.62 0 7 0 C7.33 2.64 7.66 5.28 8 8 C5.36 8 2.72 8 0 8 C0 5.36 0 2.72 0 0 Z " fill="#52507C" transform="translate(171,673)"/>
<path d="M0 0 C2.64 0 5.28 0 8 0 C8 2.31 8 4.62 8 7 C5.36 7 2.72 7 0 7 C0 4.69 0 2.38 0 0 Z " fill="#544F83" transform="translate(139,705)"/>
<path d="M0 0 C2.64 0 5.28 0 8 0 C8 2.31 8 4.62 8 7 C5.36 7 2.72 7 0 7 C0 4.69 0 2.38 0 0 Z " fill="#5D5984" transform="translate(147,697)"/>
<path d="M0 0 C0.33 0 0.66 0 1 0 C1 2.97 1 5.94 1 9 C0.34 9 -0.32 9 -1 9 C-1.66 10.65 -2.32 12.3 -3 14 C-3.66 14 -4.32 14 -5 14 C-5.33 15.65 -5.66 17.3 -6 19 C-6.99 19 -7.98 19 -9 19 C-9 16.36 -9 13.72 -9 11 C-7.02 10.67 -5.04 10.34 -3 10 C-3 9.34 -3 8.68 -3 8 C-2.01 8 -1.02 8 0 8 C0 5.36 0 2.72 0 0 Z " fill="#262344" transform="translate(306,653)"/>
<path d="M0 0 C2.64 0 5.28 0 8 0 C8 2.31 8 4.62 8 7 C5.36 7 2.72 7 0 7 C0 4.69 0 2.38 0 0 Z " fill="#534E80" transform="translate(179,665)"/>
<path d="M0 0 C2.31 0 4.62 0 7 0 C7 2.64 7 5.28 7 8 C4.69 8 2.38 8 0 8 C0 5.36 0 2.72 0 0 Z " fill="#575481" transform="translate(226,625)"/>
<path d="M0 0 C2.64 0 5.28 0 8 0 C8 2.31 8 4.62 8 7 C5.36 7 2.72 7 0 7 C0 4.69 0 2.38 0 0 Z " fill="#524F80" transform="translate(258,586)"/>
<path d="M0 0 C4.62 0 9.24 0 14 0 C14 1.32 14 2.64 14 4 C9.38 4 4.76 4 0 4 C0 2.68 0 1.36 0 0 Z " fill="#9BF631" transform="translate(322,419)"/>
<path d="M0 0 C2.64 0.33 5.28 0.66 8 1 C6.36587557 2.70840281 5.13093906 3.93453047 3 5 C3.33 5.66 3.66 6.32 4 7 C0.91111478 9.05925681 0.29064073 9.2390374 -3.1875 9.125 C-5.0746875 9.063125 -5.0746875 9.063125 -7 9 C-7 13.95 -7 18.9 -7 24 C-7.33 24 -7.66 24 -8 24 C-8 18.72 -8 13.44 -8 8 C-5.36 8 -2.72 8 0 8 C0 5.36 0 2.72 0 0 Z " fill="#454367" transform="translate(393,625)"/>
<path d="M0 0 C2.97 0 5.94 0 9 0 C9 1.98 9 3.96 9 6 C6.03 6 3.06 6 0 6 C0 4.02 0 2.04 0 0 Z " fill="#4F4C79" transform="translate(297,542)"/>
<path d="M0 0 C6.15234375 -0.09765625 6.15234375 -0.09765625 8 0 C10.05942471 2.05942471 9.45906816 6.15963735 9.625 9 C9.6765625 9.75023437 9.728125 10.50046875 9.78125 11.2734375 C9.89826517 13.18009649 9.9539329 15.09030922 10 17 C9 18 9 18 6.93359375 18.09765625 C6.10988281 18.08605469 5.28617187 18.07445312 4.4375 18.0625 C3.61121094 18.05347656 2.78492188 18.04445313 1.93359375 18.03515625 C0.97646484 18.01775391 0.97646484 18.01775391 0 18 C0 17.34 0 16.68 0 16 C2.64 16 5.28 16 8 16 C8 11.38 8 6.76 8 2 C5.36 2 2.72 2 0 2 C0 1.34 0 0.68 0 0 Z " fill="#A6E258" transform="translate(464,432)"/>
<path d="M0 0 C0 2.64 0 5.28 0 8 C-2.31 8 -4.62 8 -7 8 C-7 5.69 -7 3.38 -7 1 C-1.125 0 -1.125 0 0 0 Z " fill="#514F7D" transform="translate(131,720)"/>
<path d="M0 0 C2.31 0 4.62 0 7 0 C7 2.31 7 4.62 7 7 C4.69 7 2.38 7 0 7 C0 4.69 0 2.38 0 0 Z " fill="#54517E" transform="translate(242,610)"/>
<path d="M0 0 C1.32 0 2.64 0 4 0 C4.33 3.96 4.66 7.92 5 12 C3.35 12 1.7 12 0 12 C0 8.04 0 4.08 0 0 Z " fill="#0E0E1D" transform="translate(466,435)"/>
<path d="M0 0 C2.64 0 5.28 0 8 0 C8 1.98 8 3.96 8 6 C5.36 6 2.72 6 0 6 C0 4.02 0 2.04 0 0 Z " fill="#4B4777" transform="translate(211,728)"/>
<path d="M0 0 C0 5.28 0 10.56 0 16 C-0.66 16 -1.32 16 -2 16 C-2 12.37 -2 8.74 -2 5 C-3.32 5 -4.64 5 -6 5 C-6 3.68 -6 2.36 -6 1 C-1.125 0 -1.125 0 0 0 Z " fill="#B0F64F" transform="translate(417,418)"/>
<path d="M0 0 C2.31 0 4.62 0 7 0 C7 2.64 7 5.28 7 8 C9.97 8 12.94 8 16 8 C15.67 8.66 15.34 9.32 15 10 C12.96875 10.44921875 12.96875 10.44921875 10.5 10.6875 C9.6853125 10.77386719 8.870625 10.86023438 8.03125 10.94921875 C7.3609375 10.96597656 6.690625 10.98273437 6 11 C4.41727399 9.41727399 4.65264253 7.61965997 4.4375 5.4375 C4.35371094 4.61121094 4.26992188 3.78492188 4.18359375 2.93359375 C4.12300781 2.29550781 4.06242187 1.65742187 4 1 C2.68 0.67 1.36 0.34 0 0 Z " fill="#464466" transform="translate(488,673)"/>
<path d="M0 0 C2.64 0 5.28 0 8 0 C8 1.32 8 2.64 8 4 C7.34 4 6.68 4 6 4 C6 4.66 6 5.32 6 6 C4.02 6 2.04 6 0 6 C0 4.02 0 2.04 0 0 Z " fill="#54527F" transform="translate(289,548)"/>
<path d="M0 0 C3.63 0 7.26 0 11 0 C11 1.32 11 2.64 11 4 C7.37 4 3.74 4 0 4 C0 2.68 0 1.36 0 0 Z " fill="#A7FB3A" transform="translate(308,427)"/>
<path d="M0 0 C4.29 0 8.58 0 13 0 C13 0.33 13 0.66 13 1 C11.02 1.33 9.04 1.66 7 2 C7.99 3.485 7.99 3.485 9 5 C6.03 5 3.06 5 0 5 C0 3.35 0 1.7 0 0 Z " fill="#AEF847" transform="translate(394,434)"/>
<path d="M0 0 C4.95 0 9.9 0 15 0 C15.33 2.31 15.66 4.62 16 7 C18.97 7.33 21.94 7.66 25 8 C25 8.33 25 8.66 25 9 C23.18757948 9.02687279 21.37504767 9.04633715 19.5625 9.0625 C18.55316406 9.07410156 17.54382813 9.08570313 16.50390625 9.09765625 C14 9 14 9 13 8 C12.95907063 5.66702567 12.95758277 3.33294775 13 1 C8.71 1 4.42 1 0 1 C0 0.67 0 0.34 0 0 Z " fill="#B6F760" transform="translate(418,402)"/>
<path d="M0 0 C0.33 0 0.66 0 1 0 C1 3.3 1 6.6 1 10 C-1.64 10 -4.28 10 -7 10 C-7 11.98 -7 13.96 -7 16 C-7.66 16 -8.32 16 -9 16 C-9 13.36 -9 10.72 -9 8 C-6.03 8 -3.06 8 0 8 C0 5.36 0 2.72 0 0 Z " fill="#213B11" transform="translate(346,409)"/>
<path d="M0 0 C2.31 0 4.62 0 7 0 C7 2.31 7 4.62 7 7 C6.34 6.34 5.68 5.68 5 5 C1.9254644 5.7763932 1.9254644 5.7763932 0 8 C0 5.36 0 2.72 0 0 Z " fill="#534F7D" transform="translate(218,633)"/>
<path d="M0 0 C2.97 0 5.94 0 9 0 C9 0.33 9 0.66 9 1 C7.02 1.33 5.04 1.66 3 2 C2.34 3.98 1.68 5.96 1 8 C-1.97 8 -4.94 8 -8 8 C-8 10.31 -8 12.62 -8 15 C-8.33 15 -8.66 15 -9 15 C-9 12.36 -9 9.72 -9 7 C-6.03 7 -3.06 7 0 7 C0 4.69 0 2.38 0 0 Z " fill="#464465" transform="translate(418,602)"/>
<path d="M0 0 C5.28 0.33 10.56 0.66 16 1 C16 1.33 16 1.66 16 2 C11.38 2 6.76 2 2 2 C2 3.32 2 4.64 2 6 C3.98 6 5.96 6 8 6 C8 6.33 8 6.66 8 7 C5.36 7.33 2.72 7.66 0 8 C0 5.36 0 2.72 0 0 Z " fill="#9CDF51" transform="translate(320,417)"/>
<path d="M0 0 C0.99 0 1.98 0 3 0 C3.33 2.31 3.66 4.62 4 7 C-1.28 7 -6.56 7 -12 7 C-12 6.67 -12 6.34 -12 6 C-11.04287109 5.92652344 -11.04287109 5.92652344 -10.06640625 5.8515625 C-9.24011719 5.77679687 -8.41382813 5.70203125 -7.5625 5.625 C-6.73878906 5.55539062 -5.91507813 5.48578125 -5.06640625 5.4140625 C-4.38449219 5.27742187 -3.70257813 5.14078125 -3 5 C-2.67 4.34 -2.34 3.68 -2 3 C-1.34 3 -0.68 3 0 3 C0 2.01 0 1.02 0 0 Z " fill="#484372" transform="translate(159,690)"/>
<path d="M0 0 C2.97 0 5.94 0 9 0 C9 0.33 9 0.66 9 1 C6.36 1 3.72 1 1 1 C1 3.31 1 5.62 1 8 C3.64 8 6.28 8 9 8 C9 8.33 9 8.66 9 9 C6.36 9 3.72 9 1 9 C0.67 10.32 0.34 11.64 0 13 C0 11.68 0 10.36 0 9 C-2.31 9 -4.62 9 -7 9 C-7 8.67 -7 8.34 -7 8 C-4.69 8 -2.38 8 0 8 C0 5.36 0 2.72 0 0 Z " fill="#37355A" transform="translate(178,664)"/>
<path d="M0 0 C2.64 0 5.28 0 8 0 C8 2.31 8 4.62 8 7 C7.67 7 7.34 7 7 7 C7 5.02 7 3.04 7 1 C6.01 1 5.02 1 4 1 C4 1.99 4 2.98 4 4 C3.01 4.495 3.01 4.495 2 5 C3.32 5.66 4.64 6.32 6 7 C4.02 7 2.04 7 0 7 C0 4.69 0 2.38 0 0 Z " fill="#585481" transform="translate(155,689)"/>
<path d="M0 0 C2.31 0 4.62 0 7 0 C7 1.65 7 3.3 7 5 C4.69 5 2.38 5 0 5 C0 3.35 0 1.7 0 0 Z " fill="#ACF63C" transform="translate(298,434)"/>
<path d="M0 0 C7.59 0 15.18 0 23 0 C22.67 0.66 22.34 1.32 22 2 C15.73 2 9.46 2 3 2 C2.34 3.65 1.68 5.3 1 7 C0.67 7 0.34 7 0 7 C0 4.69 0 2.38 0 0 Z " fill="#151B1C" transform="translate(348,410)"/>
<path d="M0 0 C2.31 0 4.62 0 7 0 C7 2.31 7 4.62 7 7 C5 4 5 4 5 2 C4.01 2 3.02 2 2 2 C1.67 6.62 1.34 11.24 1 16 C0.67 16 0.34 16 0 16 C0 10.72 0 5.44 0 0 Z " fill="#0B0923" transform="translate(433,673)"/>
<path d="M0 0 C0.33 0.66 0.66 1.32 1 2 C3.64 2 6.28 2 9 2 C8.401875 2.268125 7.80375 2.53625 7.1875 2.8125 C5.02775192 3.98493467 3.64209744 5.19369282 2 7 C2 6.01 2 5.02 2 4 C-3.28 4 -8.56 4 -14 4 C-14 3.67 -14 3.34 -14 3 C-9.38 3 -4.76 3 0 3 C0 2.01 0 1.02 0 0 Z " fill="#060810" transform="translate(439,528)"/>
<path d="M0 0 C2.64 0 5.28 0 8 0 C7.67 1.32 7.34 2.64 7 4 C5.68 3.67 4.36 3.34 3 3 C2.67 4.32 2.34 5.64 2 7 C1.34 7 0.68 7 0 7 C0 4.69 0 2.38 0 0 Z " fill="#554F7D" transform="translate(163,681)"/>
<path d="M0 0 C0 1.98 0 3.96 0 6 C-2.31 6 -4.62 6 -7 6 C-7 5.01 -7 4.02 -7 3 C-4.46815512 0.64276511 -3.52809907 0 0 0 Z " fill="#302D52" transform="translate(281,661)"/>
<path d="M0 0 C2.475 0.495 2.475 0.495 5 1 C4.67 3.31 4.34 5.62 4 8 C2.68 8 1.36 8 0 8 C0 5.36 0 2.72 0 0 Z " fill="#0C0C19" transform="translate(355,649)"/>
<path d="M0 0 C2.64 0 5.28 0 8 0 C7.67 0.99 7.34 1.98 7 3 C1.72 3 -3.56 3 -9 3 C-9 2.67 -9 2.34 -9 2 C-6.03 2 -3.06 2 0 2 C0 1.34 0 0.68 0 0 Z " fill="#10180C" transform="translate(466,539)"/>
<path d="M0 0 C0.99 0 1.98 0 3 0 C3 0.66 3 1.32 3 2 C3.66 2.33 4.32 2.66 5 3 C4.34 3 3.68 3 3 3 C3 4.98 3 6.96 3 9 C4.65 9.33 6.3 9.66 8 10 C8 10.33 8 10.66 8 11 C5.69 11 3.38 11 1 11 C0.67 7.37 0.34 3.74 0 0 Z " fill="#0B1112" transform="translate(488,421)"/>
<path d="M0 0 C4.29 0 8.58 0 13 0 C13 0.33 13 0.66 13 1 C9.7 1.33 6.4 1.66 3 2 C3 3.98 3 5.96 3 8 C2.01 8 1.02 8 0 8 C0 5.36 0 2.72 0 0 Z " fill="#49466D" transform="translate(217,760)"/>
<path d="M0 0 C0.99 0.33 1.98 0.66 3 1 C2.67 5.62 2.34 10.24 2 15 C1.34 15 0.68 15 0 15 C0 10.05 0 5.1 0 0 Z " fill="#5D5A85" transform="translate(266,570)"/>
<path d="M0 0 C0.66 0 1.32 0 2 0 C2 3.3 2 6.6 2 10 C-2.29 9.67 -6.58 9.34 -11 9 C-11 8.67 -11 8.34 -11 8 C-7.37 8 -3.74 8 0 8 C0 5.36 0 2.72 0 0 Z " fill="#263516" transform="translate(484,456)"/>
<path d="M0 0 C0.33 0.66 0.66 1.32 1 2 C1.99 1.67 2.98 1.34 4 1 C4 2.98 4 4.96 4 7 C1.03 7 -1.94 7 -5 7 C-5 6.67 -5 6.34 -5 6 C-2.69 6 -0.38 6 2 6 C1.01 5.67 0.02 5.34 -1 5 C-1.6875 2.9375 -1.6875 2.9375 -2 1 C-1.34 0.67 -0.68 0.34 0 0 Z " fill="#0C1314" transform="translate(342,401)"/>
<path d="M0 0 C2.97 0.33 5.94 0.66 9 1 C7.68 1.99 6.36 2.98 5 4 C5.99 4.33 6.98 4.66 8 5 C8 5.33 8 5.66 8 6 C5.69 6 3.38 6 1 6 C0.67 4.02 0.34 2.04 0 0 Z " fill="#1D2426" transform="translate(457,534)"/>
<path d="M0 0 C1.98 0 3.96 0 6 0 C5.25 2.9375 5.25 2.9375 4 6 C1.875 6.875 1.875 6.875 0 7 C0 4.69 0 2.38 0 0 Z " fill="#5B5685" transform="translate(370,745)"/>
<path d="M0 0 C0.33 0 0.66 0 1 0 C1.50310058 1.7907985 2.00238628 3.58266911 2.5 5.375 C2.7784375 6.37273438 3.056875 7.37046875 3.34375 8.3984375 C4 11 4 11 4 13 C5.32 13.66 6.64 14.32 8 15 C6.02 15 4.04 15 2 15 C2 12.36 2 9.72 2 7 C1.34 7 0.68 7 0 7 C0 4.69 0 2.38 0 0 Z " fill="#0B0A16" transform="translate(518,586)"/>
<path d="M0 0 C2.97 0.495 2.97 0.495 6 1 C5.360625 1.598125 4.72125 2.19625 4.0625 2.8125 C1.79689611 4.90810337 1.79689611 4.90810337 1 8 C-1.64 8 -4.28 8 -7 8 C-7 7.67 -7 7.34 -7 7 C-4.69 7 -2.38 7 0 7 C0 4.69 0 2.38 0 0 Z " fill="#454369" transform="translate(377,649)"/>
<path d="M0 0 C0.66 0 1.32 0 2 0 C2 2.64 2 5.28 2 8 C-0.31 8 -2.62 8 -5 8 C-3.68 7.67 -2.36 7.34 -1 7 C-0.67 5.68 -0.34 4.36 0 3 C-0.66 2.67 -1.32 2.34 -2 2 C-1.34 1.34 -0.68 0.68 0 0 Z " fill="#514E79" transform="translate(231,625)"/>
<path d="M0 0 C0.33 0 0.66 0 1 0 C1 2.31 1 4.62 1 7 C-2.3 6.67 -5.6 6.34 -9 6 C-9 5.67 -9 5.34 -9 5 C-8.195625 4.87625 -7.39125 4.7525 -6.5625 4.625 C-5.716875 4.41875 -4.87125 4.2125 -4 4 C-3.67 3.34 -3.34 2.68 -3 2 C-2.34 2 -1.68 2 -1 2 C-0.67 1.34 -0.34 0.68 0 0 Z " fill="#5B5687" transform="translate(717,777)"/>
<path d="M0 0 C2.31 0 4.62 0 7 0 C6 3 6 3 5 4 C3.34183216 4.68753301 1.67540664 5.35561283 0 6 C0 4.02 0 2.04 0 0 Z " fill="#5B5985" transform="translate(354,760)"/>
<path d="M0 0 C0 2.31 0 4.62 0 7 C-0.33 6.34 -0.66 5.68 -1 5 C-2.32 5 -3.64 5 -5 5 C-5 3.68 -5 2.36 -5 1 C-3 0 -3 0 0 0 Z " fill="#534F82" transform="translate(123,729)"/>
<path d="M0 0 C0.33 0 0.66 0 1 0 C1.33 1.65 1.66 3.3 2 5 C5.3 5.66 8.6 6.32 12 7 C12 7.33 12 7.66 12 8 C8.04 8 4.08 8 0 8 C0 5.36 0 2.72 0 0 Z " fill="#5A5781" transform="translate(223,720)"/>
<path d="M0 0 C1.65 0 3.3 0 5 0 C5 1.65 5 3.3 5 5 C3.35 5 1.7 5 0 5 C0 3.35 0 1.7 0 0 Z " fill="#12121D" transform="translate(453,434)"/>
<path d="M0 0 C0.33 0 0.66 0 1 0 C1.33 1.65 1.66 3.3 2 5 C4.47266765 4.65555119 4.47266765 4.65555119 7 4 C7.33 3.34 7.66 2.68 8 2 C8 3.65 8 5.3 8 7 C5.36 7 2.72 7 0 7 C0 4.69 0 2.38 0 0 Z " fill="#4D4975" transform="translate(139,705)"/>
<path d="M0 0 C2 1.3125 2 1.3125 4 3 C4 3.99 4 4.98 4 6 C5.32 6.33 6.64 6.66 8 7 C5.36 7 2.72 7 0 7 C0 4.69 0 2.38 0 0 Z " fill="#0D0B24" transform="translate(464,745)"/>
<path d="M0 0 C0.33 0 0.66 0 1 0 C1 1.65 1 3.3 1 5 C2.98 5 4.96 5 7 5 C7 5.66 7 6.32 7 7 C4.36 7 1.72 7 -1 7 C-0.67 4.69 -0.34 2.38 0 0 Z " fill="#1F1D28" transform="translate(593,658)"/>
<path d="M0 0 C0.33 0 0.66 0 1 0 C1.33 1.65 1.66 3.3 2 5 C2.33 5 2.66 5 3 5 C3 6.65 3 8.3 3 10 C1.35 10.33 -0.3 10.66 -2 11 C-1.67 10.01 -1.34 9.02 -1 8 C-0.78444749 6.6082227 -0.59806254 5.21168784 -0.4375 3.8125 C-0.293125 2.554375 -0.14875 1.29625 0 0 Z " fill="#343441" transform="translate(369,641)"/>
<path d="M0 0 C2.31 0 4.62 0 7 0 C7 1.98 7 3.96 7 6 C6.67 4.68 6.34 3.36 6 2 C4.02 2.66 2.04 3.32 0 4 C0 2.68 0 1.36 0 0 Z " fill="#4B4776" transform="translate(339,776)"/>
<path d="M0 0 C0.99 0 1.98 0 3 0 C3 2.64 3 5.28 3 8 C2.01 8 1.02 8 0 8 C0 5.36 0 2.72 0 0 Z " fill="#4B4970" transform="translate(433,768)"/>
<path d="M0 0 C1.65 0 3.3 0 5 0 C5 1.32 5 2.64 5 4 C3.02 4 1.04 4 -1 4 C-0.67 2.68 -0.34 1.36 0 0 Z " fill="#191227" transform="translate(426,419)"/>
<path d="M0 0 C1.65 0 3.3 0 5 0 C5 2.31 5 4.62 5 7 C4.34 6.01 3.68 5.02 3 4 C2.01 4 1.02 4 0 4 C0 2.68 0 1.36 0 0 Z " fill="#111013" transform="translate(387,395)"/>
<path d="M0 0 C1.65 0 3.3 0 5 0 C3.68 2.64 2.36 5.28 1 8 C0.67 8 0.34 8 0 8 C0 5.36 0 2.72 0 0 Z " fill="#1E1B3B" transform="translate(297,752)"/>
<path d="M0 0 C1.32 0.33 2.64 0.66 4 1 C3.67 1.33 3.34 1.66 3 2 C3.40929986 4.05396726 3.40929986 4.05396726 4 6 C1.03 5.505 1.03 5.505 -2 5 C-1.34 4.34 -0.68 3.68 0 3 C0 2.01 0 1.02 0 0 Z " fill="#514B7E" transform="translate(150,698)"/>
<path d="M0 0 C2.97 0 5.94 0 9 0 C8.67 1.65 8.34 3.3 8 5 C7.01 4.34 6.02 3.68 5 3 C3.34416775 2.30686092 1.67889021 1.63525576 0 1 C0 0.67 0 0.34 0 0 Z " fill="#484469" transform="translate(479,665)"/>
<path d="M0 0 C0.33 0 0.66 0 1 0 C1.36923077 7.50769231 1.36923077 7.50769231 -0.5 10 C-0.995 10.33 -1.49 10.66 -2 11 C-3.02104551 10.02149805 -4.0206121 9.02019573 -5 8 C-5 7.67 -5 7.34 -5 7 C-3.35 7 -1.7 7 0 7 C0 4.69 0 2.38 0 0 Z " fill="#1B1734" transform="translate(225,635)"/>
<path d="M0 0 C1.65 0 3.3 0 5 0 C4.67 1.32 4.34 2.64 4 4 C2.35 3.67 0.7 3.34 -1 3 C-0.67 2.01 -0.34 1.02 0 0 Z " fill="#A5F830" transform="translate(379,395)"/>
<path d="M0 0 C4 4.625 4 4.625 4 8 C2.35 8 0.7 8 -1 8 C-0.67 7.34 -0.34 6.68 0 6 C0.039992 4.00039988 0.04346799 1.99952758 0 0 Z " fill="#A3D262" transform="translate(342,525)"/>
<path d="M0 0 C-0.33 0.66 -0.66 1.32 -1 2 C-1.99 2 -2.98 2 -4 2 C-4.33 3.98 -4.66 5.96 -5 8 C-5.33 8 -5.66 8 -6 8 C-6 5.36 -6 2.72 -6 0 C-3 -1 -3 -1 0 0 Z " fill="#323057" transform="translate(303,664)"/>
<path d="M0 0 C2.475 0.495 2.475 0.495 5 1 C3.70700306 3.88437779 2.34058637 5.87219421 0 8 C0 5.36 0 2.72 0 0 Z " fill="#45436B" transform="translate(369,657)"/>
<path d="M0 0 C0.66 0.33 1.32 0.66 2 1 C1.67 2.98 1.34 4.96 1 7 C0.01 7 -0.98 7 -2 7 C-2 5.02 -2 3.04 -2 1 C-1.34 0.67 -0.68 0.34 0 0 Z " fill="#100E24" transform="translate(342,636)"/>
<path d="M0 0 C1.32 0 2.64 0 4 0 C4 1.65 4 3.3 4 5 C3.01 5 2.02 5 1 5 C0.67 3.35 0.34 1.7 0 0 Z " fill="#494674" transform="translate(498,627)"/>
<path d="M0 0 C1.98 0.99 1.98 0.99 4 2 C4 2.99 4 3.98 4 5 C3.01 4.67 2.02 4.34 1 4 C0.67 4.66 0.34 5.32 0 6 C0 4.02 0 2.04 0 0 Z " fill="#0E0C27" transform="translate(218,642)"/>
<path d="M0 0 C2.31 0 4.62 0 7 0 C6.360625 0.309375 5.72125 0.61875 5.0625 0.9375 C3.06389179 1.8345163 3.06389179 1.8345163 2 3 C2.66 3.66 3.32 4.32 4 5 C2.68 5 1.36 5 0 5 C0 3.35 0 1.7 0 0 Z " fill="#B2F845" transform="translate(367,449)"/>
<path d="M0 0 C2.475 0.495 2.475 0.495 5 1 C4.67 1.99 4.34 2.98 4 4 C2.68 4 1.36 4 0 4 C0 2.68 0 1.36 0 0 Z " fill="#A4F430" transform="translate(371,395)"/>
</svg>
